<svg width="38" height="37" viewBox="0 0 38 37" fill="none" xmlns="http://www.w3.org/2000/svg">
<path id="Vector" d="M6.41075 35.5118H30.9634C32.5072 35.5118 33.9877 34.8984 35.0794 33.8065C36.171 32.7146 36.7843 31.2338 36.7843 29.6897V17.7776C36.7689 16.2436 36.1489 14.7776 35.0589 13.6983C33.9689 12.619 32.4971 12.0136 30.9634 12.0136H24.5487L22.6744 0.986572L12.8254 12.0136H6.41075C4.87699 12.0136 3.40517 12.619 2.31519 13.6983C1.22522 14.7776 0.605181 16.2436 0.589844 17.7776V29.7362C0.60213 31.2722 1.22082 32.7412 2.31112 33.823C3.40143 34.9048 4.87499 35.5118 6.41075 35.5118Z" fill="white" stroke="#263238" stroke-linecap="round" stroke-linejoin="round"/>
</svg>
