<svg width="27" height="26" viewBox="0 0 27 26" fill="none" xmlns="http://www.w3.org/2000/svg">
<g id="Group 1164">
<g id="Subtract">
<mask id="path-1-outside-1_88_432" maskUnits="userSpaceOnUse" x="7.02148" y="6.28983" width="20" height="20" fill="black">
<rect fill="white" x="7.02148" y="6.28983" width="20" height="20"/>
<path fill-rule="evenodd" clip-rule="evenodd" d="M19.3818 19.9212V22.662C19.3818 24.5289 16.1564 25.0055 14.3769 25.0055H11.1992C9.70302 24.8996 8.02148 24.4097 8.02148 22.662V18.6635C8.02148 15.9578 10.2148 13.7644 12.9204 13.7644H13.8605C17.4363 13.7644 20.3351 10.8656 20.3351 7.28983H23.195C23.9762 7.47519 25.5386 8.8469 25.5386 12.8508C25.5386 17.2375 20.9486 18.7296 16.5619 18.7296H13.6619V19.7226H19.3818V19.9212ZM17.3961 23.0195C17.7471 23.0195 18.0317 22.735 18.0317 22.384C18.0317 22.033 17.7471 21.7484 17.3961 21.7484C17.0451 21.7484 16.7606 22.033 16.7606 22.384C16.7606 22.735 17.0451 23.0195 17.3961 23.0195Z"/>
</mask>
<path fill-rule="evenodd" clip-rule="evenodd" d="M19.3818 19.9212V22.662C19.3818 24.5289 16.1564 25.0055 14.3769 25.0055H11.1992C9.70302 24.8996 8.02148 24.4097 8.02148 22.662V18.6635C8.02148 15.9578 10.2148 13.7644 12.9204 13.7644H13.8605C17.4363 13.7644 20.3351 10.8656 20.3351 7.28983H23.195C23.9762 7.47519 25.5386 8.8469 25.5386 12.8508C25.5386 17.2375 20.9486 18.7296 16.5619 18.7296H13.6619V19.7226H19.3818V19.9212ZM17.3961 23.0195C17.7471 23.0195 18.0317 22.735 18.0317 22.384C18.0317 22.033 17.7471 21.7484 17.3961 21.7484C17.0451 21.7484 16.7606 22.033 16.7606 22.384C16.7606 22.735 17.0451 23.0195 17.3961 23.0195Z" fill="white"/>
<path d="M11.1992 25.0055L11.1286 26.003L11.1638 26.0055H11.1992V25.0055ZM20.3351 7.28983V6.28983H19.3351V7.28983H20.3351ZM23.195 7.28983L23.4259 6.31684L23.312 6.28983H23.195V7.28983ZM13.6619 18.7296V17.7296H12.6619V18.7296H13.6619ZM13.6619 19.7226H12.6619V20.7226H13.6619V19.7226ZM19.3818 19.7226H20.3818V18.7226H19.3818V19.7226ZM20.3818 22.662V19.9212H18.3818V22.662H20.3818ZM14.3769 26.0055C15.3292 26.0055 16.7005 25.8808 17.8708 25.4798C18.9505 25.1098 20.3818 24.3038 20.3818 22.662H18.3818C18.3818 22.887 18.2003 23.2528 17.2225 23.5878C16.3352 23.8919 15.2041 24.0055 14.3769 24.0055V26.0055ZM11.1992 26.0055H14.3769V24.0055H11.1992V26.0055ZM7.02148 22.662C7.02148 23.9386 7.67373 24.8049 8.54555 25.3133C9.35064 25.7827 10.3276 25.9463 11.1286 26.003L11.2698 24.008C10.5746 23.9588 9.96272 23.8245 9.553 23.5856C9.21001 23.3856 9.02148 23.1331 9.02148 22.662H7.02148ZM7.02148 18.6635V22.662H9.02148V18.6635H7.02148ZM12.9204 12.7644C9.66251 12.7644 7.02148 15.4056 7.02148 18.6635H9.02148C9.02148 16.5101 10.7671 14.7644 12.9204 14.7644V12.7644ZM13.8605 12.7644H12.9204V14.7644H13.8605V12.7644ZM19.3351 7.28983C19.3351 10.3133 16.884 12.7644 13.8605 12.7644V14.7644C17.9886 14.7644 21.3351 11.4179 21.3351 7.28983H19.3351ZM23.195 6.28983H20.3351V8.28983H23.195V6.28983ZM26.5386 12.8508C26.5386 8.67338 24.8892 6.66407 23.4259 6.31684L22.9641 8.26281C22.964 8.26278 22.9659 8.26323 22.9698 8.26446C22.9737 8.26568 22.9793 8.2676 22.9866 8.27044C23.0013 8.27617 23.0216 8.2852 23.047 8.29884C23.0981 8.32627 23.1655 8.37006 23.2442 8.43678C23.4014 8.56993 23.5966 8.78871 23.7885 9.12922C24.172 9.80998 24.5386 10.9741 24.5386 12.8508H26.5386ZM16.5619 19.7296C18.8425 19.7296 21.2735 19.3457 23.1726 18.3139C25.125 17.2531 26.5386 15.4796 26.5386 12.8508H24.5386C24.5386 14.6087 23.6571 15.7746 22.2178 16.5565C20.7253 17.3674 18.6679 17.7296 16.5619 17.7296V19.7296ZM13.6619 19.7296H16.5619V17.7296H13.6619V19.7296ZM14.6619 19.7226V18.7296H12.6619V19.7226H14.6619ZM19.3818 18.7226H13.6619V20.7226H19.3818V18.7226ZM20.3818 19.9212V19.7226H18.3818V19.9212H20.3818ZM17.0317 22.384C17.0317 22.1827 17.1949 22.0195 17.3961 22.0195V24.0195C18.2994 24.0195 19.0317 23.2873 19.0317 22.384H17.0317ZM17.3961 22.7484C17.1949 22.7484 17.0317 22.5853 17.0317 22.384H19.0317C19.0317 21.4807 18.2994 20.7484 17.3961 20.7484V22.7484ZM17.7606 22.384C17.7606 22.5853 17.5974 22.7484 17.3961 22.7484V20.7484C16.4929 20.7484 15.7606 21.4807 15.7606 22.384H17.7606ZM17.3961 22.0195C17.5974 22.0195 17.7606 22.1827 17.7606 22.384H15.7606C15.7606 23.2873 16.4929 24.0195 17.3961 24.0195V22.0195Z" fill="#1A2E35" mask="url(#path-1-outside-1_88_432)"/>
</g>
<g id="Subtract_2">
<mask id="path-3-outside-2_88_432" maskUnits="userSpaceOnUse" x="0.223144" y="-0.0320756" width="20" height="20" fill="black">
<rect fill="white" x="0.223144" y="-0.0320756" width="20" height="20"/>
<path fill-rule="evenodd" clip-rule="evenodd" d="M7.86286 6.33656L7.86286 3.59579C7.86286 1.72889 11.0882 1.25224 12.8677 1.25224L16.0454 1.25224C17.5416 1.35816 19.2231 1.84805 19.2231 3.59579L19.2231 7.5943C19.2231 10.2999 17.0298 12.4934 14.3242 12.4934L13.3841 12.4934C9.80831 12.4934 6.90955 15.3921 6.90955 18.9679L4.04962 18.9679C3.26843 18.7826 1.70606 17.4109 1.70606 13.4069C1.70606 9.02025 6.29606 7.5282 10.6828 7.5282L13.5827 7.5282L13.5827 6.53517L7.86286 6.53517L7.86286 6.33656ZM9.84895 3.23831C9.49795 3.23831 9.21341 3.52285 9.21341 3.87385C9.21341 4.22485 9.49795 4.50939 9.84895 4.50939C10.1999 4.50939 10.4845 4.22485 10.4845 3.87385C10.4845 3.52285 10.1999 3.23831 9.84895 3.23831Z"/>
</mask>
<path fill-rule="evenodd" clip-rule="evenodd" d="M7.86286 6.33656L7.86286 3.59579C7.86286 1.72889 11.0882 1.25224 12.8677 1.25224L16.0454 1.25224C17.5416 1.35816 19.2231 1.84805 19.2231 3.59579L19.2231 7.5943C19.2231 10.2999 17.0298 12.4934 14.3242 12.4934L13.3841 12.4934C9.80831 12.4934 6.90955 15.3921 6.90955 18.9679L4.04962 18.9679C3.26843 18.7826 1.70606 17.4109 1.70606 13.4069C1.70606 9.02025 6.29606 7.5282 10.6828 7.5282L13.5827 7.5282L13.5827 6.53517L7.86286 6.53517L7.86286 6.33656ZM9.84895 3.23831C9.49795 3.23831 9.21341 3.52285 9.21341 3.87385C9.21341 4.22485 9.49795 4.50939 9.84895 4.50939C10.1999 4.50939 10.4845 4.22485 10.4845 3.87385C10.4845 3.52285 10.1999 3.23831 9.84895 3.23831Z" fill="white"/>
<path d="M7.86286 3.59579L6.86286 3.59579L7.86286 3.59579ZM7.86286 6.33656L8.86286 6.33656L7.86286 6.33656ZM16.0454 1.25224L16.1161 0.254734L16.0808 0.252237L16.0454 0.252237L16.0454 1.25224ZM19.2231 3.59579L20.2231 3.59579L19.2231 3.59579ZM19.2231 7.5943L18.2231 7.5943L19.2231 7.5943ZM6.90955 18.9679L6.90955 19.9679L7.90955 19.9679L7.90955 18.9679L6.90955 18.9679ZM4.04962 18.9679L3.81874 19.9409L3.9326 19.9679L4.04962 19.9679L4.04962 18.9679ZM13.5827 7.5282L13.5827 8.5282L14.5827 8.5282L14.5827 7.5282L13.5827 7.5282ZM13.5827 6.53517L14.5827 6.53517L14.5827 5.53517L13.5827 5.53517L13.5827 6.53517ZM7.86286 6.53517L6.86286 6.53517L6.86286 7.53517L7.86286 7.53517L7.86286 6.53517ZM6.86286 3.59579L6.86286 6.33656L8.86286 6.33656L8.86286 3.59579L6.86286 3.59579ZM12.8677 0.252237C11.9154 0.252237 10.5441 0.376903 9.37382 0.777925C8.29408 1.14791 6.86286 1.95393 6.86286 3.59579L8.86286 3.59579C8.86286 3.37075 9.04432 3.00499 10.0221 2.66993C10.9094 2.3659 12.0405 2.25224 12.8677 2.25224L12.8677 0.252237ZM16.0454 0.252237L12.8677 0.252237L12.8677 2.25224L16.0454 2.25224L16.0454 0.252237ZM20.2231 3.59579C20.2231 2.3192 19.5709 1.45284 18.6991 0.944469C17.894 0.475017 16.917 0.311439 16.1161 0.254734L15.9748 2.24974C16.67 2.29896 17.2819 2.43329 17.6916 2.6722C18.0346 2.8722 18.2231 3.12465 18.2231 3.59579L20.2231 3.59579ZM20.2231 7.5943L20.2231 3.59579L18.2231 3.59579L18.2231 7.5943L20.2231 7.5943ZM14.3242 13.4934C17.5821 13.4934 20.2231 10.8522 20.2231 7.5943L18.2231 7.5943C18.2231 9.74766 16.4775 11.4934 14.3242 11.4934L14.3242 13.4934ZM13.3841 13.4934L14.3242 13.4934L14.3242 11.4934L13.3841 11.4934L13.3841 13.4934ZM7.90955 18.9679C7.90955 15.9444 10.3606 13.4934 13.3841 13.4934L13.3841 11.4934C9.25603 11.4934 5.90955 14.8398 5.90955 18.9679L7.90955 18.9679ZM4.04962 19.9679L6.90955 19.9679L6.90955 17.9679L4.04962 17.9679L4.04962 19.9679ZM0.706061 13.4069C0.706061 17.5844 2.35542 19.5937 3.81874 19.9409L4.28049 17.9949C4.28061 17.995 4.27871 17.9945 4.27481 17.9933C4.27092 17.9921 4.26531 17.9901 4.25803 17.9873C4.24334 17.9816 4.22302 17.9725 4.19761 17.9589C4.14652 17.9315 4.07912 17.8877 4.00039 17.821C3.84327 17.6878 3.64798 17.469 3.45613 17.1285C3.07259 16.4478 2.70606 15.2836 2.70606 13.4069L0.706061 13.4069ZM10.6828 6.5282C8.40211 6.5282 5.97114 6.91207 4.07201 7.94387C2.11958 9.00462 0.706061 10.7781 0.706061 13.4069L2.70606 13.4069C2.70606 11.6491 3.58754 10.4832 5.02679 9.70125C6.51934 8.89035 8.57671 8.5282 10.6828 8.5282L10.6828 6.5282ZM13.5827 6.5282L10.6828 6.5282L10.6828 8.5282L13.5827 8.5282L13.5827 6.5282ZM12.5827 6.53517L12.5827 7.5282L14.5827 7.5282L14.5827 6.53517L12.5827 6.53517ZM7.86286 7.53517L13.5827 7.53517L13.5827 5.53517L7.86286 5.53517L7.86286 7.53517ZM6.86286 6.33656L6.86286 6.53517L8.86286 6.53517L8.86286 6.33656L6.86286 6.33656ZM10.2134 3.87385C10.2134 4.07514 10.0502 4.23831 9.84895 4.23831L9.84895 2.23831C8.94567 2.23831 8.21341 2.97056 8.21341 3.87385L10.2134 3.87385ZM9.84895 3.50939C10.0502 3.50939 10.2134 3.67256 10.2134 3.87385L8.21341 3.87385C8.21341 4.77713 8.94567 5.50939 9.84895 5.50939L9.84895 3.50939ZM9.48449 3.87385C9.48449 3.67256 9.64766 3.50939 9.84895 3.50939L9.84895 5.50939C10.7522 5.50939 11.4845 4.77713 11.4845 3.87385L9.48449 3.87385ZM9.84895 4.23831C9.64766 4.23831 9.48449 4.07513 9.48449 3.87385L11.4845 3.87385C11.4845 2.97057 10.7522 2.23831 9.84895 2.23831L9.84895 4.23831Z" fill="#1A2E35" mask="url(#path-3-outside-2_88_432)"/>
</g>
</g>
</svg>
